<?xml version="1.0" standalone="no"?>
<!DOCTYPE svg PUBLIC "-//W3C//DTD SVG 20010904//EN"
 "http://www.w3.org/TR/2001/REC-SVG-20010904/DTD/svg10.dtd">
<svg version="1.0" xmlns="http://www.w3.org/2000/svg"
 width="78.000000pt" height="78.000000pt" viewBox="0 0 78.000000 78.000000"
 preserveAspectRatio="xMidYMid meet">
<metadata>
Created by potrace 1.14, written by Peter Selinger 2001-2017
</metadata>
<g transform="translate(0.000000,78.000000) scale(0.100000,-0.100000)"
fill="#000000" stroke="none">
<path d="M153 563 l-153 -85 0 -44 0 -43 27 15 c16 7 31 14 36 14 4 0 7 -48 6
-107 0 -60 0 -119 0 -133 l1 -25 268 0 c147 1 273 -1 280 -3 7 -2 12 -21 12
-44 0 -21 4 -37 8 -34 5 3 8 21 7 40 -2 29 2 36 16 36 11 0 19 -7 19 -15 0 -8
4 -15 10 -15 5 0 7 6 4 14 -3 8 4 16 18 20 l23 7 -24 10 c-19 8 -21 12 -11 24
8 10 24 14 41 11 16 -2 31 0 35 5 6 10 -6 12 -48 9 -33 -2 -30 -17 -32 192 0
86 -4 160 -8 164 -5 4 -8 -75 -8 -175 0 -168 -1 -182 -17 -179 -16 3 -18 20
-18 190 0 102 -3 190 -8 194 -7 8 -10 -26 -7 -83 2 -40 9 -42 -168 55 -72 39
-137 72 -144 71 -7 0 -82 -39 -165 -86z m222 44 c11 -8 56 -33 100 -57 150
-81 154 -84 153 -106 -2 -21 -3 -21 -33 -4 -16 9 -61 34 -100 55 -133 71 -155
86 -155 106 0 22 8 24 35 6z m110 -127 c33 -18 79 -44 102 -57 l43 -25 -3 -86
-2 -87 -135 -1 -135 -1 0 150 c0 127 -2 151 -16 160 -9 6 -24 7 -33 4 -13 -5
-16 -25 -16 -124 l-1 -118 -40 45 c-22 25 -50 57 -62 72 -12 15 -25 28 -29 28
-5 0 -8 -24 -8 -53 0 -52 2 -56 69 -133 l69 -79 -71 -3 c-38 -2 -73 1 -76 7
-5 7 -6 172 -2 268 1 17 21 33 93 72 l92 50 51 -28 c27 -16 77 -43 110 -61z
m140 -282 c21 -21 -16 -28 -136 -28 -118 0 -129 2 -129 18 0 17 10 19 129 18
72 -1 133 -5 136 -8z m55 -14 c0 -8 -9 -14 -20 -14 -20 0 -23 19 -5 32 12 9
25 0 25 -18z"/>
<path d="M438 383 c-20 -5 -32 -33 -15 -33 7 0 18 5 24 11 8 8 13 8 18 0 3 -7
-7 -27 -24 -47 -17 -19 -31 -36 -31 -39 0 -7 78 0 86 8 7 6 -19 12 -40 8 -15
-3 39 57 57 62 14 4 17 -2 17 -39 0 -50 19 -61 21 -11 1 17 2 41 3 52 2 28
-14 36 -39 19 -19 -13 -24 -13 -35 1 -7 8 -15 14 -19 14 -3 -1 -13 -3 -23 -6z"/>
</g>
</svg>
